<svg width="32" height="32" viewBox="0 0 32 32" fill="none" xmlns="http://www.w3.org/2000/svg">
<path fill-rule="evenodd" clip-rule="evenodd" d="M9.89704 9.45768L11.4623 11.0718C11.8351 11.4563 11.9417 12.0265 11.7329 12.5197C11.5242 13.0129 11.0406 13.3333 10.5051 13.3333H5.33333C4.59695 13.3333 4 12.7364 4 12V6.66667C4 6.12365 4.32931 5.63488 4.83258 5.43094C5.33585 5.227 5.91251 5.34864 6.29053 5.73847L8.03987 7.54247C10.1494 5.36063 13.0762 4 16.3232 4C22.8105 4 28 9.41155 28 16C28 22.5884 22.8105 28 16.3232 28C11.1199 28 6.74587 24.5115 5.2245 19.7382C5.00089 19.0366 5.38837 18.2866 6.08998 18.063C6.79158 17.8393 7.54162 18.2268 7.76524 18.9284C8.95849 22.6723 12.3591 25.3333 16.3232 25.3333C21.261 25.3333 25.3333 21.1936 25.3333 16C25.3333 10.8064 21.261 6.66667 16.3232 6.66667C13.8163 6.66667 11.5374 7.72872 9.89704 9.45768Z" fill="black"/>
</svg>
