<svg width="24" height="24" viewBox="0 0 24 24" fill="none" xmlns="http://www.w3.org/2000/svg">
<path fill-rule="evenodd" clip-rule="evenodd" d="M12.0003 3.39941C9.23887 3.39941 7.00029 5.63799 7.00029 8.39941C7.00029 11.1608 9.23887 13.3994 12.0003 13.3994C14.7617 13.3994 17.0003 11.1608 17.0003 8.39941C17.0003 5.63799 14.7617 3.39941 12.0003 3.39941ZM5.00029 8.39941C5.00029 4.53342 8.1343 1.39941 12.0003 1.39941C15.8663 1.39941 19.0003 4.53342 19.0003 8.39941C19.0003 8.65791 18.9863 8.91313 18.959 9.16436C21.4527 10.2346 23.2008 12.7119 23.2008 15.5997C23.2008 19.4657 20.0668 22.5997 16.2008 22.5997C14.6262 22.5997 13.1704 22.0786 12.0004 21.1998C10.8308 22.0782 9.37585 22.5995 7.80029 22.5995C3.9343 22.5995 0.800293 19.4655 0.800293 15.5995C0.800293 12.7119 2.54812 10.2348 5.04161 9.16441C5.01431 8.91316 5.00029 8.65793 5.00029 8.39941ZM5.55342 11.1313C3.91975 11.9544 2.80029 13.6473 2.80029 15.5995C2.80029 18.361 5.03887 20.5995 7.80029 20.5995C9.1992 20.5995 10.4624 20.0264 11.3711 19.0995C12.2562 18.1966 12.8003 16.9626 12.8003 15.5995C12.8003 15.5136 12.8111 15.4302 12.8315 15.3506C12.5589 15.3828 12.2816 15.3994 12.0003 15.3994C9.10355 15.3994 6.61777 13.6399 5.55342 11.1313ZM14.5386 14.925C14.7011 15.1028 14.8003 15.3396 14.8003 15.5995C14.8003 17.158 14.2901 18.5987 13.4289 19.7618C14.222 20.2913 15.1742 20.5997 16.2008 20.5997C18.9622 20.5997 21.2008 18.3611 21.2008 15.5997C21.2008 13.6472 20.0811 11.9543 18.4472 11.1312C17.7118 12.8645 16.2978 14.2402 14.5386 14.925Z" fill="white"/>
</svg>
