<svg width="32" height="32" viewBox="0 0 32 32" fill="none" xmlns="http://www.w3.org/2000/svg">
<g id="download">
<path id="Icon (Stroke)" fill-rule="evenodd" clip-rule="evenodd" d="M16.0015 2.66669C16.7379 2.66669 17.3348 3.26364 17.3348 4.00002V16.7085L21.1548 12.8954C21.6759 12.3752 22.5202 12.376 23.0404 12.8971C23.5606 13.4183 23.5599 14.2625 23.0387 14.7827L16.9434 20.867C16.4229 21.3865 15.58 21.3865 15.0595 20.867L8.96429 14.7827C8.44312 14.2625 8.44236 13.4183 8.96259 12.8971C9.48282 12.376 10.327 12.3752 10.8482 12.8954L14.6682 16.7085V4.00002C14.6682 3.26364 15.2651 2.66669 16.0015 2.66669ZM26.6667 18.9392C27.403 18.9392 28 19.5362 28 20.2725V25.19C28 26.267 27.5946 27.3131 26.8528 28.0948C26.1087 28.8789 25.0841 29.3334 24 29.3334H8C6.91594 29.3334 5.89135 28.8789 5.14723 28.0948C4.40537 27.3131 4 26.267 4 25.19L4 20.2725C4 19.5362 4.59695 18.9392 5.33333 18.9392C6.06971 18.9392 6.66667 19.5362 6.66667 20.2725V25.19C6.66667 25.6035 6.8232 25.987 7.08153 26.2592C7.33761 26.529 7.66957 26.6667 8 26.6667H24C24.3304 26.6667 24.6624 26.529 24.9185 26.2592C25.1768 25.987 25.3333 25.6035 25.3333 25.19V20.2725C25.3333 19.5362 25.9303 18.9392 26.6667 18.9392Z" fill="black"/>
</g>
</svg>
