<svg width="18" height="18" viewBox="0 0 18 18" fill="none" xmlns="http://www.w3.org/2000/svg">
<path fill-rule="evenodd" clip-rule="evenodd" d="M11.0501 3.47805C11.05 3.47818 11.0503 3.47792 11.0501 3.47805L8.51291 6.01529L13.0325 10.239L15.4218 7.84974C15.4219 7.84962 15.4217 7.84985 15.4218 7.84974C15.4398 7.83151 15.4502 7.80661 15.4502 7.78101C15.4502 7.75541 15.4401 7.73085 15.4222 7.71262C15.422 7.71251 15.4223 7.71274 15.4222 7.71262L11.1876 3.47805C11.1875 3.47792 11.1877 3.47818 11.1876 3.47805C11.1694 3.46014 11.1444 3.44971 11.1189 3.44971C11.0933 3.44971 11.0684 3.46014 11.0501 3.47805ZM11.9713 11.3003L7.45165 7.07656L2.57852 11.9497C2.57838 11.9498 2.57865 11.9495 2.57852 11.9497C2.56061 11.9679 2.55017 11.9928 2.55017 12.0184C2.55017 12.044 2.56021 12.0685 2.57812 12.0867C2.57825 12.0869 2.57799 12.0866 2.57812 12.0867L5.74718 15.2558H8.01576L11.9713 11.3003ZM10.1371 15.2558L16.4841 8.90881L16.4856 8.90723C16.7832 8.60793 16.9502 8.20304 16.9502 7.78101C16.9502 7.35898 16.7832 6.9541 16.4856 6.65479L12.2467 2.41582L12.2451 2.41424C11.9458 2.11671 11.5409 1.94971 11.1189 1.94971C10.6968 1.94971 10.292 2.11671 9.99264 2.41424L9.99106 2.41582L6.90647 5.50041C6.90482 5.50205 6.90317 5.5037 6.90153 5.50536L1.51628 10.8906L1.51471 10.8922C1.21717 11.1915 1.05017 11.5964 1.05017 12.0184C1.05017 12.4404 1.21717 12.8453 1.51471 13.1446L1.51628 13.1462L4.90619 16.5361C5.04685 16.6768 5.23761 16.7558 5.43652 16.7558H14.7588C15.173 16.7558 15.5088 16.42 15.5088 16.0058C15.5088 15.5916 15.173 15.2558 14.7588 15.2558H10.1371Z" fill="black"/>
</svg>
