<svg width="32" height="32" viewBox="0 0 32 32" fill="none" xmlns="http://www.w3.org/2000/svg">
<g id="folder-down">
<path id="Icon (Stroke)" fill-rule="evenodd" clip-rule="evenodd" d="M4.80061 6.74504C4.65222 6.74504 4.53384 6.86458 4.53388 7.01088C4.53427 8.26761 4.53473 10.0034 4.53472 11.2222L4.5346 23.388C4.53459 24.4189 5.37032 25.2547 6.40126 25.2547L25.5996 25.2547C26.6305 25.2547 27.4662 24.419 27.4663 23.3881L27.4666 10.9499C27.4666 10.8026 27.3472 10.6832 27.2 10.6832H16.1116C15.7427 10.6832 15.3903 10.5304 15.1382 10.2611L11.8467 6.74504H4.80061ZM1.86722 7.0117C1.86672 5.39023 3.18123 4.07837 4.80061 4.07837H12.4249C12.7938 4.07837 13.1462 4.23119 13.3983 4.50048L16.6898 8.01655H27.2C28.82 8.01655 30.1334 9.3299 30.1333 10.95L30.1329 23.3882C30.1328 25.8918 28.1032 27.9214 25.5996 27.9214L6.40126 27.9213C3.89755 27.9213 1.86791 25.8917 1.86793 23.388L1.86805 11.2222C1.86806 10.0039 1.86761 8.26844 1.86722 7.0117ZM15.9277 12.3234C16.664 12.3234 17.261 12.9204 17.261 13.6568V18.4486L18.2595 17.4549C18.7814 16.9355 19.6256 16.9375 20.1451 17.4594C20.6645 17.9814 20.6625 18.8256 20.1406 19.345L16.8682 22.6018C16.3482 23.1193 15.5078 23.1195 14.9876 22.6023L11.8599 19.4927C11.3377 18.9736 11.3353 18.1293 11.8545 17.6071C12.3737 17.0849 13.2179 17.0825 13.7401 17.6017L14.5943 18.451V13.6568C14.5943 12.9204 15.1913 12.3234 15.9277 12.3234Z" fill="black"/>
</g>
</svg>
