<svg width="110" height="22" viewBox="0 0 110 22" fill="none" xmlns="http://www.w3.org/2000/svg">
<g id="logo">
<path id="Vector" d="M110 16.5681V21.7267H94.3215V0.181885H109.721V5.34051H100.364V8.37499H108.358V13.1695H100.364V16.5681H110Z" fill="black"/>
<path id="Vector_2" d="M76.1965 21.7267V0.181885H82.2386V16.5681H92.2158V21.7267H76.1965Z" fill="black"/>
<path id="Vector_3" d="M56.8914 21.7267V0.181885H66.3728C67.447 0.181885 68.4385 0.404413 69.3474 0.849471C70.2563 1.2743 71.0309 1.84074 71.6713 2.54878C72.3323 3.2366 72.8487 4.03568 73.2205 4.94602C73.5924 5.83614 73.7783 6.73637 73.7783 7.64671C73.7783 8.59752 73.6027 9.52809 73.2515 10.4384C72.9004 11.3286 72.4046 12.1276 71.7642 12.8357C71.1445 13.5235 70.3802 14.0798 69.4713 14.5046C68.5831 14.9092 67.6019 15.1115 66.5278 15.1115H62.9335V21.7267H56.8914ZM62.9335 9.95292H66.125C66.4968 9.95292 66.8376 9.79108 67.1475 9.4674C67.478 9.12349 67.6432 8.5166 67.6432 7.64671C67.6432 6.7566 67.4573 6.1497 67.0855 5.82602C66.7137 5.50234 66.3419 5.34051 65.97 5.34051H62.9335V9.95292Z" fill="black"/>
<path id="Vector_4" d="M47.0842 21.7267V10.3777L43.3969 18.3584H40.1745L36.4873 10.3777V21.7267H30.4452V0.181885H37.045L41.7857 10.3171L46.5574 0.181885H53.1262V21.7267H47.0842Z" fill="black"/>
<path id="Vector_5" d="M20.6111 21.7267V0.181885H26.6532V21.7267H20.6111Z" fill="black"/>
<path id="Vector_6" d="M14.8108 7.22207C14.1911 6.85793 13.5508 6.53425 12.8898 6.25103C12.332 6.00828 11.702 5.78575 10.9997 5.58345C10.318 5.36092 9.64668 5.24965 8.98566 5.24965C8.44859 5.24965 8.0148 5.33057 7.68429 5.49241C7.37444 5.65425 7.21951 5.92736 7.21951 6.31172C7.21951 6.59494 7.31247 6.82759 7.49838 7.00965C7.68429 7.19172 7.95283 7.36368 8.30399 7.52552C8.65515 7.66713 9.07862 7.80873 9.57438 7.95034C10.0908 8.09195 10.6692 8.26391 11.3095 8.46621C12.3217 8.76965 13.2306 9.10345 14.0362 9.46759C14.8625 9.83172 15.5648 10.2667 16.1432 10.7724C16.7216 11.2579 17.1657 11.8547 17.4756 12.5628C17.7854 13.2708 17.9403 14.1306 17.9403 15.1421C17.9403 16.4368 17.6925 17.5292 17.1967 18.4193C16.7216 19.2892 16.0812 19.9871 15.2756 20.5131C14.4907 21.0391 13.5921 21.4234 12.5799 21.6662C11.5884 21.8887 10.5866 22 9.57438 22C8.76877 22 7.9425 21.9393 7.09557 21.8179C6.24865 21.6966 5.40172 21.5246 4.5548 21.3021C3.72853 21.0795 2.92292 20.8166 2.13797 20.5131C1.37367 20.2097 0.661014 19.8657 0 19.4814L2.60274 14.2924C3.32573 14.7375 4.0797 15.132 4.86465 15.4759C5.52567 15.7793 6.26931 16.0524 7.09557 16.2952C7.9425 16.5379 8.79975 16.6593 9.66733 16.6593C10.3283 16.6593 10.7828 16.5784 11.0307 16.4166C11.2992 16.2345 11.4335 16.0018 11.4335 15.7186C11.4335 15.4152 11.2992 15.1623 11.0307 14.96C10.7828 14.7375 10.4316 14.5453 9.97718 14.3834C9.52274 14.2216 8.99599 14.0598 8.39694 13.8979C7.81856 13.7361 7.19886 13.5439 6.53784 13.3214C5.56698 12.9977 4.73038 12.6538 4.02806 12.2897C3.32573 11.9053 2.74734 11.4805 2.29289 11.0152C1.83845 10.5297 1.49761 9.98345 1.27039 9.37655C1.06382 8.76965 0.960536 8.07172 0.960536 7.28276C0.960536 6.08919 1.17743 5.03724 1.61122 4.12689C2.06567 3.21655 2.67504 2.45793 3.43934 1.85103C4.20364 1.24414 5.07122 0.788964 6.04208 0.485516C7.0336 0.161839 8.07677 0 9.17157 0C9.97718 0 10.7621 0.0809194 11.5264 0.242759C12.2907 0.384367 13.024 0.576552 13.7264 0.819311C14.4494 1.04184 15.1207 1.29471 15.7404 1.57793C16.3601 1.84092 16.9178 2.09379 17.4136 2.33655L14.8108 7.22207Z" fill="black"/>
</g>
</svg>
