<svg width="24" height="24" viewBox="0 0 24 24" fill="none" xmlns="http://www.w3.org/2000/svg">
<g id="maximise">
<path id="Icon (Stroke)" fill-rule="evenodd" clip-rule="evenodd" d="M1.40002 4.53336C1.40002 2.80287 2.80287 1.40002 4.53336 1.40002H8.80002C9.35231 1.40002 9.80002 1.84774 9.80002 2.40002C9.80002 2.95231 9.35231 3.40002 8.80002 3.40002H4.53336C3.90743 3.40002 3.40002 3.90743 3.40002 4.53336V8.80002C3.40002 9.35231 2.95231 9.80002 2.40002 9.80002C1.84774 9.80002 1.40002 9.35231 1.40002 8.80002V4.53336ZM14.2 2.40002C14.2 1.84774 14.6477 1.40002 15.2 1.40002H19.4667C21.1972 1.40002 22.6 2.80287 22.6 4.53336V8.80002C22.6 9.35231 22.1523 9.80002 21.6 9.80002C21.0477 9.80002 20.6 9.35231 20.6 8.80002V4.53336C20.6 3.90744 20.0926 3.40002 19.4667 3.40002H15.2C14.6477 3.40002 14.2 2.95231 14.2 2.40002ZM2.40002 14.2C2.95231 14.2 3.40002 14.6477 3.40002 15.2V19.4667C3.40002 20.0926 3.90744 20.6 4.53336 20.6H8.80002C9.35231 20.6 9.80002 21.0477 9.80002 21.6C9.80002 22.1523 9.35231 22.6 8.80002 22.6H4.53336C2.80287 22.6 1.40002 21.1972 1.40002 19.4667V15.2C1.40002 14.6477 1.84774 14.2 2.40002 14.2ZM21.6 14.2C22.1523 14.2 22.6 14.6477 22.6 15.2V19.4667C22.6 21.1972 21.1972 22.6 19.4667 22.6H15.2C14.6477 22.6 14.2 22.1523 14.2 21.6C14.2 21.0477 14.6477 20.6 15.2 20.6H19.4667C20.0926 20.6 20.6 20.0926 20.6 19.4667V15.2C20.6 14.6477 21.0477 14.2 21.6 14.2Z" fill="white"/>
</g>
</svg>
