<svg width="24" height="24" viewBox="0 0 24 24" fill="none" xmlns="http://www.w3.org/2000/svg">
<g id="pencil">
<path id="Icon (Stroke)" fill-rule="evenodd" clip-rule="evenodd" d="M16.744 4.05705L5.92851 15.2503L8.97079 17.8579L19.9429 7.25605C20.8208 6.37224 20.819 4.9441 19.9375 4.06255C19.0559 3.18102 17.6278 3.17918 16.744 4.05705ZM7.32249 19.0792L3.89146 20.1085L4.83889 16.9504L7.32249 19.0792ZM15.3242 2.64834C16.9887 0.983921 19.6872 0.983916 21.3517 2.64834C23.0161 4.31277 23.0161 7.01133 21.3517 8.67576L21.3394 8.68779L9.09486 20.5192C8.98002 20.6301 8.84028 20.712 8.68734 20.7578L2.68734 22.5578C2.33497 22.6636 1.95301 22.5673 1.69288 22.3071C1.43275 22.047 1.33645 21.665 1.44216 21.3127L3.24216 15.3127C3.28805 15.1597 3.36989 15.02 3.48085 14.9052L15.3122 2.66058L15.3242 2.64834Z" fill="white"/>
</g>
</svg>
