<svg width="24" height="24" viewBox="0 0 24 24" fill="none" xmlns="http://www.w3.org/2000/svg">
<g id="color-swatch">
<path id="Icon (Stroke)" fill-rule="evenodd" clip-rule="evenodd" d="M12.0003 3.39954C9.23887 3.39954 7.00029 5.63811 7.00029 8.39954C7.00029 11.161 9.23887 13.3995 12.0003 13.3995C14.7617 13.3995 17.0003 11.161 17.0003 8.39954C17.0003 5.63811 14.7617 3.39954 12.0003 3.39954ZM5.00029 8.39954C5.00029 4.53354 8.1343 1.39954 12.0003 1.39954C15.8663 1.39954 19.0003 4.53354 19.0003 8.39954C19.0003 8.65803 18.9863 8.91325 18.959 9.16448C21.4527 10.2347 23.2008 12.712 23.2008 15.5998C23.2008 19.4658 20.0668 22.5998 16.2008 22.5998C14.6262 22.5998 13.1704 22.0787 12.0004 21.2C10.8308 22.0783 9.37585 22.5997 7.80029 22.5997C3.9343 22.5997 0.800293 19.4657 0.800293 15.5997C0.800293 12.7121 2.54812 10.2349 5.04161 9.16453C5.01431 8.91329 5.00029 8.65805 5.00029 8.39954ZM5.55342 11.1314C3.91975 11.9546 2.80029 13.6474 2.80029 15.5997C2.80029 18.3611 5.03887 20.5997 7.80029 20.5997C9.1992 20.5997 10.4624 20.0265 11.3711 19.0996C12.2562 18.1967 12.8003 16.9627 12.8003 15.5997C12.8003 15.5137 12.8111 15.4303 12.8315 15.3507C12.5589 15.3829 12.2816 15.3995 12.0003 15.3995C9.10355 15.3995 6.61777 13.64 5.55342 11.1314ZM14.5386 14.9251C14.7011 15.103 14.8003 15.3397 14.8003 15.5997C14.8003 17.1581 14.2901 18.5988 13.4289 19.7619C14.222 20.2914 15.1742 20.5998 16.2008 20.5998C18.9622 20.5998 21.2008 18.3612 21.2008 15.5998C21.2008 13.6473 20.0811 11.9544 18.4472 11.1313C17.7118 12.8646 16.2978 14.2403 14.5386 14.9251Z" fill="white"/>
</g>
</svg>
