<svg width="24" height="24" viewBox="0 0 24 24" fill="none" xmlns="http://www.w3.org/2000/svg">
<g id="smiley-happy-plus">
<path id="Icon (Stroke)" fill-rule="evenodd" clip-rule="evenodd" d="M19.8161 1C20.3684 1 20.8161 1.44772 20.8161 2V4.31494H23C23.5523 4.31494 24 4.76266 24 5.31494C24 5.86723 23.5523 6.31494 23 6.31494H20.8161V8.6006C20.8161 9.15288 20.3684 9.6006 19.8161 9.6006C19.2638 9.6006 18.8161 9.15288 18.8161 8.6006V6.31494H16.5761C16.0238 6.31494 15.5761 5.86723 15.5761 5.31494C15.5761 4.76266 16.0238 4.31494 16.5761 4.31494H18.8161V2C18.8161 1.44772 19.2638 1 19.8161 1ZM0 14.0749C0 8.60751 4.37059 4.1498 9.79321 4.1498C10.9703 4.1498 12.1008 4.3607 13.1486 4.74793C13.7424 4.96741 14.0776 5.49704 14.1542 6.01138C14.4878 8.25138 16.1041 10.0567 18.2033 10.6419C18.7153 10.7847 19.1875 11.1934 19.3282 11.8021C19.4973 12.533 19.5864 13.294 19.5864 14.0749C19.5864 19.5423 15.2158 24 9.79321 24C4.37059 24 0 19.5423 0 14.0749ZM9.79321 6.1498C5.50312 6.1498 2 9.6839 2 14.0749C2 18.4659 5.50312 22 9.79321 22C14.0833 22 17.5864 18.4659 17.5864 14.0749C17.5864 13.5345 17.5334 13.0077 17.4326 12.4992C14.7573 11.6585 12.7238 9.36582 12.2144 6.53945C11.4533 6.28672 10.6398 6.1498 9.79321 6.1498ZM6.22926 10.9425C6.22926 10.3902 6.67697 9.9425 7.22926 9.9425H7.32013C7.87241 9.9425 8.32013 10.3902 8.32013 10.9425V11.0168C8.32013 11.5691 7.87241 12.0168 7.32013 12.0168H7.22926C6.67697 12.0168 6.22926 11.5691 6.22926 11.0168V10.9425ZM11.703 10.9425C11.703 10.3902 12.1507 9.9425 12.703 9.9425H12.7838C13.3361 9.9425 13.7838 10.3902 13.7838 10.9425V11.0168C13.7838 11.5691 13.3361 12.0168 12.7838 12.0168H12.703C12.1507 12.0168 11.703 11.5691 11.703 11.0168V10.9425ZM6.32444 14.9945C6.79621 14.7073 7.41143 14.857 7.69859 15.3287C8.19755 16.1484 9.0548 16.6663 10.0071 16.6663C10.9593 16.6663 11.8166 16.1484 12.3155 15.3287C12.6027 14.857 13.2179 14.7073 13.6897 14.9945C14.1614 15.2816 14.3111 15.8969 14.0239 16.3686C13.1926 17.7344 11.7141 18.6663 10.0071 18.6663C8.30007 18.6663 6.82156 17.7344 5.9902 16.3686C5.70304 15.8969 5.85268 15.2816 6.32444 14.9945Z" fill="white"/>
</g>
</svg>
