<svg width="24" height="24" viewBox="0 0 24 24" fill="none" xmlns="http://www.w3.org/2000/svg">
<g id="type">
<path id="Vector (Stroke)" fill-rule="evenodd" clip-rule="evenodd" d="M1.40002 4.80002C1.40002 2.92226 2.92226 1.40002 4.80002 1.40002H19.2C21.0778 1.40002 22.6 2.92226 22.6 4.80002V19.2C22.6 21.0778 21.0778 22.6 19.2 22.6H4.80002C2.92226 22.6 1.40002 21.0778 1.40002 19.2V4.80002ZM4.80002 3.40002C4.02683 3.40002 3.40002 4.02683 3.40002 4.80002V19.2C3.40002 19.9732 4.02683 20.6 4.80002 20.6H19.2C19.9732 20.6 20.6 19.9732 20.6 19.2V4.80002C20.6 4.02683 19.9732 3.40002 19.2 3.40002H4.80002ZM7.40002 8.40002C7.40002 7.51637 8.11637 6.80002 9.00002 6.80002H15C15.8837 6.80002 16.6 7.51637 16.6 8.40002V9.52944C16.6 10.0817 16.1523 10.5294 15.6 10.5294C15.0477 10.5294 14.6 10.0817 14.6 9.52944V8.80002H13.1242V15.2H14.1281C14.6804 15.2 15.1281 15.6477 15.1281 16.2C15.1281 16.7523 14.6804 17.2 14.1281 17.2H10.2089C9.65661 17.2 9.20889 16.7523 9.20889 16.2C9.20889 15.6477 9.65661 15.2 10.2089 15.2H11.1242V8.80002H9.40002V9.28238C9.40002 9.83466 8.95231 10.2824 8.40002 10.2824C7.84774 10.2824 7.40002 9.83466 7.40002 9.28238V8.40002Z" fill="white"/>
</g>
</svg>
