<svg width="24" height="24" viewBox="0 0 24 24" fill="none" xmlns="http://www.w3.org/2000/svg">
<g id="crop">
<path id="Icon (Stroke)" fill-rule="evenodd" clip-rule="evenodd" d="M6.87126 1.40002C7.42354 1.40002 7.87126 1.84774 7.87126 2.40002V5.60192L16.6028 5.54688C17.7361 5.54688 18.6548 6.46563 18.6548 7.59895V15.6028H21.6C22.1523 15.6028 22.6 16.0505 22.6 16.6028C22.6 17.155 22.1523 17.6028 21.6 17.6028H18.6548V21.863C18.6548 22.4153 18.2071 22.863 17.6548 22.863C17.1025 22.863 16.6548 22.4153 16.6548 21.863V17.6028H7.92331C6.78999 17.6028 5.87126 16.684 5.87126 15.5507V7.60824H2.40002C1.84774 7.60824 1.40002 7.16053 1.40002 6.60824C1.40002 6.05596 1.84774 5.60824 2.40002 5.60824H5.87126V2.40002C5.87126 1.84774 6.31897 1.40002 6.87126 1.40002ZM7.87126 7.60196V15.5507C7.87126 15.5795 7.89456 15.6028 7.92331 15.6028H16.6548V7.59895C16.6548 7.57059 16.6321 7.54752 16.6039 7.54691L7.87126 7.60196Z" fill="white"/>
</g>
</svg>
